<svg width="248" height="257" viewBox="0 0 248 257" fill="none" xmlns="http://www.w3.org/2000/svg">
<path d="M243.169 209.118C241.165 205.584 238.545 202.528 235.462 200.129C232.379 197.729 228.895 196.035 225.215 195.144C211.132 191.516 198.918 181.86 191.242 168.288C183.566 154.715 181.053 138.328 184.25 122.709C185.48 116.672 185.071 110.367 183.077 104.586C181.082 98.8055 177.589 93.8065 173.038 90.2173C168.487 86.6282 163.079 84.6088 157.495 84.4123C151.911 84.2161 146.399 85.8517 141.652 89.114C136.904 92.3767 133.133 97.12 130.811 102.749C128.489 108.378 127.721 114.641 128.602 120.753C129.483 126.864 131.975 132.55 135.765 137.098C139.554 141.645 144.472 144.852 149.901 146.313C156.924 148.068 163.566 151.341 169.445 155.945C175.324 160.548 180.325 166.392 184.161 173.14C187.997 179.889 190.594 187.41 191.801 195.272C193.008 203.134 192.803 211.183 191.196 218.957C190.245 223.969 190.414 229.162 191.69 234.084C192.966 239.007 195.31 243.508 198.516 247.198C201.723 250.887 205.695 253.652 210.087 255.251C214.479 256.85 219.157 257.234 223.714 256.372C228.272 255.509 232.569 253.425 236.232 250.301C239.896 247.177 242.813 243.108 244.732 238.449C246.65 233.789 247.511 228.68 247.239 223.568C246.966 218.456 245.569 213.495 243.169 209.118Z" fill="#354666"/>
<path d="M71.568 174.261C76.5274 177.259 82.1819 178.547 87.8065 177.96C93.4315 177.373 98.7693 174.938 103.136 170.968C107.503 166.997 110.699 161.671 112.314 155.674C113.929 149.677 113.89 143.283 112.202 137.311C110.061 129.696 109.299 121.688 109.958 113.746C110.617 105.803 112.685 98.0836 116.043 91.0287C119.401 83.9738 123.983 77.7222 129.526 72.6324C135.07 67.5426 141.465 63.7154 148.347 61.3691C153.684 59.5174 158.407 55.9583 161.922 51.14C165.437 46.3217 167.587 40.4593 168.101 34.2904C168.616 28.1216 167.472 21.9219 164.813 16.4722C162.154 11.0221 158.099 6.5649 153.158 3.66179C148.218 0.75867 142.612 -0.461181 137.048 0.156437C131.483 0.773672 126.207 3.2003 121.885 7.13137C117.562 11.0621 114.386 16.3214 112.755 22.2473C111.125 28.1731 111.113 34.5008 112.721 40.4339C116.944 55.7513 115.516 72.2982 108.751 86.4523C101.985 100.606 90.4336 111.215 76.6236 115.957C71.1719 117.708 66.3201 121.232 62.6966 126.072C59.0732 130.912 56.8446 136.846 56.2999 143.104C55.7555 149.363 56.9196 155.659 59.6418 161.176C62.364 166.694 66.5187 171.179 71.568 174.051V174.261Z" fill="#354666"/>
<path d="M144.52 169.131C140.751 169.278 137.046 170.256 133.622 172.009C130.198 173.761 127.125 176.252 124.581 179.337C114.713 191.029 101.066 197.918 86.6258 198.497C72.185 199.075 58.1247 193.297 47.5191 182.425C44.7789 179.577 41.555 177.361 38.0346 175.905C34.5146 174.449 30.7682 173.784 27.0135 173.946C22.3919 174.188 17.8935 175.679 13.9117 178.289C9.92961 180.899 6.58526 184.549 4.16996 188.92C1.7543 193.291 0.341642 198.251 0.0545267 203.366C-0.232241 208.482 0.615219 213.597 2.52365 218.266C4.43208 222.935 7.3428 227.015 11.0024 230.152C14.662 233.288 18.9586 235.384 23.5178 236.257C28.0769 237.13 32.7599 236.755 37.1576 235.162C41.5557 233.57 45.5346 230.809 48.7474 227.121C53.635 221.26 59.5182 216.524 66.0604 213.185C72.603 209.846 79.6756 207.969 86.8736 207.663C94.0717 207.357 101.254 208.627 108.008 211.4C114.762 214.173 120.956 218.395 126.235 223.824C129.672 227.264 133.817 229.718 138.308 230.973C142.8 232.228 147.5 232.244 151.998 231.021C156.496 229.798 160.655 227.373 164.112 223.958C167.568 220.542 170.216 216.241 171.825 211.429C173.434 206.618 173.953 201.444 173.339 196.358C172.725 191.273 170.995 186.432 168.3 182.258C165.606 178.085 162.03 174.706 157.885 172.418C153.739 170.13 149.151 169.001 144.52 169.131Z" fill="#354666"/>
</svg>
